# xmcd
#
# Track frame offsets:
# 150
# 19777
# 36557
# 50107
# 67982
# 82460
# 104257
# 123170
# 136625
# 153647
# 167042
# 182625
# 194775
# 210577
# 227182
# 239180
# 252510
# 268112
# 281520
# 300767
#
# Disc length: 4247 seconds
#
#
# Revision: 1
# Processed by: cddbd v1.5.2PL0 Copyright (c) Steve Scherf et al.
# Submitted via: FreeRIP 2.80 
#
DISCID=2d109514
DTITLE=BAILÃO DE PEÃO - MILLENNIUM
DYEAR=2002
DGENRE=Sertanejo
TTITLE0=Chitãozinho and Xororó - Bailão do Peão
TTITLE1=Rionegro and Solimões - A Gente Se Entrega
TTITLE2=Jad and Jefferson - Saco de Ouro
TTITLE3=Roberta Miranda - A Mulher em Mim
TTITLE4=Tonico and Tinoco - Moreninha Linda
TTITLE5=Sandy and Junior - Etc. e Tal - Jambalaya
TTITLE6=Luan and Leomar - Nelore Valente
TTITLE7=André and Adriano - Água de Coco
TTITLE8=Nalva Aguiar - Xonado eu Tô
TTITLE9=Maurício and Mauri - Esquecido
TTITLE10=João Mineiro and Marciano - Viola Está Chorando
TTITLE11=Bill Valley - Boi na Linha
TTITLE12=Chitãozinho and Xororó - Pura Emoção
TTITLE13=Tiãozinho and Alessandro - Fui Dando Porrada
TTITLE14=Antonio Carlos and Renato - É Pra Quebrar a Cama
TTITLE15=Rionegro and Solimões - De São Paulo a Belém
TTITLE16=Adalberto and Adriano - Silhueta
TTITLE17=Remix Sertanejo Feat Mr.Chan - Festa de Rodeio/Paz na Cama/O Que Tiver Que Vir Virá
TTITLE18=Ruy Maurity - Serafim e Seus Filhos
TTITLE19=Chitãozinho and Xororó - Ave Maria
EXTD=
EXTT0=
EXTT1=
EXTT2=
EXTT3=
EXTT4=
EXTT5=
EXTT6=
EXTT7=
EXTT8=
EXTT9=
EXTT10=
EXTT11=
EXTT12=
EXTT13=
EXTT14=
EXTT15=
EXTT16=
EXTT17=
EXTT18=
EXTT19=
PLAYORDER=
